<mxfile host="Electron" agent="Mozilla/5.0 (Windows NT 10.0; Win64; x64) AppleWebKit/537.36 (KHTML, like Gecko) draw.io/24.7.5 Chrome/126.0.6478.183 Electron/31.3.0 Safari/537.36" version="24.7.5">
  <diagram name="第 1 页" id="hRxLMndlIpu360IFiSi-">
    <mxGraphModel dx="1951" dy="844" grid="1" gridSize="10" guides="1" tooltips="1" connect="1" arrows="1" fold="1" page="1" pageScale="1" pageWidth="827" pageHeight="1169" math="0" shadow="0">
      <root>
        <mxCell id="0" />
        <mxCell id="1" parent="0" />
        <mxCell id="Yb1WT7qQ8Ji8rUQ7JZyw-11" value="" style="html=1;whiteSpace=wrap;shape=isoCube2;backgroundOutline=1;isoAngle=11.256254322334023;fillColor=#fad7ac;strokeColor=#b46504;strokeWidth=4;" parent="1" vertex="1">
          <mxGeometry x="-500" y="373" width="410" height="327" as="geometry" />
        </mxCell>
        <mxCell id="eC04_2ZupNT1sOcSuhNw-1" value="" style="html=1;whiteSpace=wrap;shape=isoCube2;backgroundOutline=1;isoAngle=15;fillColor=#fad7ac;strokeColor=#b46504;" parent="1" vertex="1">
          <mxGeometry x="300" y="460" width="90" height="90" as="geometry" />
        </mxCell>
        <mxCell id="eC04_2ZupNT1sOcSuhNw-4" value="" style="html=1;whiteSpace=wrap;shape=isoCube2;backgroundOutline=1;isoAngle=15;fillColor=#fad7ac;strokeColor=#b46504;" parent="1" vertex="1">
          <mxGeometry x="360" y="490" width="90" height="90" as="geometry" />
        </mxCell>
        <mxCell id="eC04_2ZupNT1sOcSuhNw-5" value="" style="html=1;whiteSpace=wrap;shape=isoCube2;backgroundOutline=1;isoAngle=15;fillColor=#dae8fc;strokeColor=#6c8ebf;" parent="1" vertex="1">
          <mxGeometry x="420" y="520" width="90" height="90" as="geometry" />
        </mxCell>
        <mxCell id="eC04_2ZupNT1sOcSuhNw-6" value="" style="html=1;whiteSpace=wrap;shape=isoCube2;backgroundOutline=1;isoAngle=15;fillColor=#fad7ac;strokeColor=#b46504;" parent="1" vertex="1">
          <mxGeometry x="300" y="400" width="90" height="90" as="geometry" />
        </mxCell>
        <mxCell id="eC04_2ZupNT1sOcSuhNw-7" value="" style="html=1;whiteSpace=wrap;shape=isoCube2;backgroundOutline=1;isoAngle=15;fillColor=#fad7ac;strokeColor=#b46504;" parent="1" vertex="1">
          <mxGeometry x="360" y="430" width="90" height="90" as="geometry" />
        </mxCell>
        <mxCell id="eC04_2ZupNT1sOcSuhNw-8" value="" style="html=1;whiteSpace=wrap;shape=isoCube2;backgroundOutline=1;isoAngle=15;fillColor=#fad7ac;strokeColor=#b46504;" parent="1" vertex="1">
          <mxGeometry x="420" y="460" width="90" height="90" as="geometry" />
        </mxCell>
        <mxCell id="eC04_2ZupNT1sOcSuhNw-9" value="" style="html=1;whiteSpace=wrap;shape=isoCube2;backgroundOutline=1;isoAngle=15;fillColor=#dae8fc;strokeColor=#6c8ebf;" parent="1" vertex="1">
          <mxGeometry x="300" y="340" width="90" height="90" as="geometry" />
        </mxCell>
        <mxCell id="eC04_2ZupNT1sOcSuhNw-10" value="" style="html=1;whiteSpace=wrap;shape=isoCube2;backgroundOutline=1;isoAngle=15;fillColor=#fad7ac;strokeColor=#b46504;" parent="1" vertex="1">
          <mxGeometry x="360" y="370" width="90" height="90" as="geometry" />
        </mxCell>
        <mxCell id="eC04_2ZupNT1sOcSuhNw-11" value="" style="html=1;whiteSpace=wrap;shape=isoCube2;backgroundOutline=1;isoAngle=15;fillColor=#dae8fc;strokeColor=#6c8ebf;" parent="1" vertex="1">
          <mxGeometry x="420" y="400" width="90" height="90" as="geometry" />
        </mxCell>
        <mxCell id="eC04_2ZupNT1sOcSuhNw-12" value="" style="html=1;whiteSpace=wrap;shape=isoCube2;backgroundOutline=1;isoAngle=15;fillColor=#fad7ac;strokeColor=#b46504;" parent="1" vertex="1">
          <mxGeometry x="243" y="487" width="90" height="90" as="geometry" />
        </mxCell>
        <mxCell id="eC04_2ZupNT1sOcSuhNw-15" value="" style="html=1;whiteSpace=wrap;shape=isoCube2;backgroundOutline=1;isoAngle=15;fillColor=#fad7ac;strokeColor=#b46504;" parent="1" vertex="1">
          <mxGeometry x="243" y="428" width="90" height="90" as="geometry" />
        </mxCell>
        <mxCell id="eC04_2ZupNT1sOcSuhNw-16" value="" style="html=1;whiteSpace=wrap;shape=isoCube2;backgroundOutline=1;isoAngle=15;fillColor=#fad7ac;strokeColor=#b46504;" parent="1" vertex="1">
          <mxGeometry x="243" y="370" width="90" height="90" as="geometry" />
        </mxCell>
        <mxCell id="eC04_2ZupNT1sOcSuhNw-18" value="" style="html=1;whiteSpace=wrap;shape=isoCube2;backgroundOutline=1;isoAngle=15;fillColor=#fad7ac;strokeColor=#b46504;" parent="1" vertex="1">
          <mxGeometry x="300" y="520" width="90" height="90" as="geometry" />
        </mxCell>
        <mxCell id="eC04_2ZupNT1sOcSuhNw-19" value="" style="html=1;whiteSpace=wrap;shape=isoCube2;backgroundOutline=1;isoAngle=15;fillColor=#fad7ac;strokeColor=#b46504;" parent="1" vertex="1">
          <mxGeometry x="300" y="460" width="90" height="90" as="geometry" />
        </mxCell>
        <mxCell id="eC04_2ZupNT1sOcSuhNw-20" value="" style="html=1;whiteSpace=wrap;shape=isoCube2;backgroundOutline=1;isoAngle=15;fillColor=#dae8fc;strokeColor=#6c8ebf;" parent="1" vertex="1">
          <mxGeometry x="300" y="400" width="90" height="90" as="geometry" />
        </mxCell>
        <mxCell id="eC04_2ZupNT1sOcSuhNw-21" value="" style="html=1;whiteSpace=wrap;shape=isoCube2;backgroundOutline=1;isoAngle=15;fillColor=#fad7ac;strokeColor=#b46504;" parent="1" vertex="1">
          <mxGeometry x="360" y="547" width="90" height="90" as="geometry" />
        </mxCell>
        <mxCell id="eC04_2ZupNT1sOcSuhNw-22" value="" style="html=1;whiteSpace=wrap;shape=isoCube2;backgroundOutline=1;isoAngle=15;fillColor=#dae8fc;strokeColor=#6c8ebf;" parent="1" vertex="1">
          <mxGeometry x="360" y="487" width="90" height="90" as="geometry" />
        </mxCell>
        <mxCell id="eC04_2ZupNT1sOcSuhNw-23" value="" style="html=1;whiteSpace=wrap;shape=isoCube2;backgroundOutline=1;isoAngle=15;fillColor=#fad7ac;strokeColor=#b46504;" parent="1" vertex="1">
          <mxGeometry x="360" y="427" width="90" height="90" as="geometry" />
        </mxCell>
        <mxCell id="eC04_2ZupNT1sOcSuhNw-27" value="" style="html=1;whiteSpace=wrap;shape=isoCube2;backgroundOutline=1;isoAngle=15;fillColor=#fad7ac;strokeColor=#b46504;" parent="1" vertex="1">
          <mxGeometry x="184.5" y="515.5" width="90" height="90" as="geometry" />
        </mxCell>
        <mxCell id="eC04_2ZupNT1sOcSuhNw-28" value="" style="html=1;whiteSpace=wrap;shape=isoCube2;backgroundOutline=1;isoAngle=15;fillColor=#fad7ac;strokeColor=#b46504;" parent="1" vertex="1">
          <mxGeometry x="184.5" y="456.5" width="90" height="90" as="geometry" />
        </mxCell>
        <mxCell id="eC04_2ZupNT1sOcSuhNw-29" value="" style="html=1;whiteSpace=wrap;shape=isoCube2;backgroundOutline=1;isoAngle=15;fillColor=#dae8fc;strokeColor=#6c8ebf;" parent="1" vertex="1">
          <mxGeometry x="184.5" y="398.5" width="90" height="90" as="geometry" />
        </mxCell>
        <mxCell id="eC04_2ZupNT1sOcSuhNw-30" value="" style="html=1;whiteSpace=wrap;shape=isoCube2;backgroundOutline=1;isoAngle=15;fillColor=#fad7ac;strokeColor=#b46504;" parent="1" vertex="1">
          <mxGeometry x="241.5" y="548.5" width="90" height="90" as="geometry" />
        </mxCell>
        <mxCell id="eC04_2ZupNT1sOcSuhNw-31" value="" style="html=1;whiteSpace=wrap;shape=isoCube2;backgroundOutline=1;isoAngle=15;fillColor=#fad7ac;strokeColor=#b46504;" parent="1" vertex="1">
          <mxGeometry x="241.5" y="488.5" width="90" height="90" as="geometry" />
        </mxCell>
        <mxCell id="eC04_2ZupNT1sOcSuhNw-32" value="" style="html=1;whiteSpace=wrap;shape=isoCube2;backgroundOutline=1;isoAngle=15;fillColor=#fad7ac;strokeColor=#b46504;" parent="1" vertex="1">
          <mxGeometry x="241.5" y="428.5" width="90" height="90" as="geometry" />
        </mxCell>
        <mxCell id="eC04_2ZupNT1sOcSuhNw-33" value="" style="html=1;whiteSpace=wrap;shape=isoCube2;backgroundOutline=1;isoAngle=15;fillColor=#dae8fc;strokeColor=#6c8ebf;" parent="1" vertex="1">
          <mxGeometry x="301.5" y="575.5" width="90" height="90" as="geometry" />
        </mxCell>
        <mxCell id="eC04_2ZupNT1sOcSuhNw-34" value="" style="html=1;whiteSpace=wrap;shape=isoCube2;backgroundOutline=1;isoAngle=15;fillColor=#fad7ac;strokeColor=#b46504;" parent="1" vertex="1">
          <mxGeometry x="301.5" y="515.5" width="90" height="90" as="geometry" />
        </mxCell>
        <mxCell id="eC04_2ZupNT1sOcSuhNw-35" value="" style="html=1;whiteSpace=wrap;shape=isoCube2;backgroundOutline=1;isoAngle=15;fillColor=#dae8fc;strokeColor=#6c8ebf;" parent="1" vertex="1">
          <mxGeometry x="301.5" y="455.5" width="90" height="90" as="geometry" />
        </mxCell>
        <mxCell id="eC04_2ZupNT1sOcSuhNw-36" value="" style="html=1;whiteSpace=wrap;shape=isoCube2;backgroundOutline=1;isoAngle=15;fillColor=#fad7ac;strokeColor=#b46504;" parent="1" vertex="1">
          <mxGeometry x="126" y="544" width="90" height="90" as="geometry" />
        </mxCell>
        <mxCell id="eC04_2ZupNT1sOcSuhNw-37" value="" style="html=1;whiteSpace=wrap;shape=isoCube2;backgroundOutline=1;isoAngle=15;fillColor=#dae8fc;strokeColor=#6c8ebf;" parent="1" vertex="1">
          <mxGeometry x="126" y="485" width="90" height="90" as="geometry" />
        </mxCell>
        <mxCell id="eC04_2ZupNT1sOcSuhNw-38" value="" style="html=1;whiteSpace=wrap;shape=isoCube2;backgroundOutline=1;isoAngle=15;fillColor=#fad7ac;strokeColor=#b46504;" parent="1" vertex="1">
          <mxGeometry x="126" y="427" width="90" height="90" as="geometry" />
        </mxCell>
        <mxCell id="eC04_2ZupNT1sOcSuhNw-39" value="" style="html=1;whiteSpace=wrap;shape=isoCube2;backgroundOutline=1;isoAngle=15;fillColor=#dae8fc;strokeColor=#6c8ebf;" parent="1" vertex="1">
          <mxGeometry x="183" y="577" width="90" height="90" as="geometry" />
        </mxCell>
        <mxCell id="eC04_2ZupNT1sOcSuhNw-40" value="" style="html=1;whiteSpace=wrap;shape=isoCube2;backgroundOutline=1;isoAngle=15;fillColor=#fad7ac;strokeColor=#b46504;" parent="1" vertex="1">
          <mxGeometry x="183" y="517" width="90" height="90" as="geometry" />
        </mxCell>
        <mxCell id="eC04_2ZupNT1sOcSuhNw-41" value="" style="html=1;whiteSpace=wrap;shape=isoCube2;backgroundOutline=1;isoAngle=15;fillColor=#dae8fc;strokeColor=#6c8ebf;" parent="1" vertex="1">
          <mxGeometry x="183" y="457" width="90" height="90" as="geometry" />
        </mxCell>
        <mxCell id="eC04_2ZupNT1sOcSuhNw-42" value="" style="html=1;whiteSpace=wrap;shape=isoCube2;backgroundOutline=1;isoAngle=15;fillColor=#fad7ac;strokeColor=#b46504;" parent="1" vertex="1">
          <mxGeometry x="243" y="604" width="90" height="90" as="geometry" />
        </mxCell>
        <mxCell id="eC04_2ZupNT1sOcSuhNw-43" value="" style="html=1;whiteSpace=wrap;shape=isoCube2;backgroundOutline=1;isoAngle=15;fillColor=#dae8fc;strokeColor=#6c8ebf;" parent="1" vertex="1">
          <mxGeometry x="243" y="544" width="90" height="90" as="geometry" />
        </mxCell>
        <mxCell id="eC04_2ZupNT1sOcSuhNw-44" value="" style="html=1;whiteSpace=wrap;shape=isoCube2;backgroundOutline=1;isoAngle=15;fillColor=#fad7ac;strokeColor=#b46504;" parent="1" vertex="1">
          <mxGeometry x="243" y="484" width="90" height="90" as="geometry" />
        </mxCell>
        <mxCell id="eC04_2ZupNT1sOcSuhNw-46" value="" style="endArrow=baseDash;html=1;rounded=0;startArrow=baseDash;startFill=0;endFill=0;" parent="1" edge="1">
          <mxGeometry width="50" height="50" relative="1" as="geometry">
            <mxPoint x="110" y="620" as="sourcePoint" />
            <mxPoint x="280" y="710" as="targetPoint" />
          </mxGeometry>
        </mxCell>
        <mxCell id="eC04_2ZupNT1sOcSuhNw-47" value="" style="endArrow=baseDash;html=1;rounded=0;endFill=0;startArrow=baseDash;startFill=0;" parent="1" edge="1">
          <mxGeometry width="50" height="50" relative="1" as="geometry">
            <mxPoint x="300" y="710" as="sourcePoint" />
            <mxPoint x="520" y="600" as="targetPoint" />
          </mxGeometry>
        </mxCell>
        <mxCell id="eC04_2ZupNT1sOcSuhNw-48" value="&lt;b&gt;&lt;font face=&quot;Comic Sans MS&quot;&gt;Ly&lt;/font&gt;&lt;/b&gt;" style="text;html=1;align=center;verticalAlign=middle;whiteSpace=wrap;rounded=0;rotation=23;" parent="1" vertex="1">
          <mxGeometry x="147" y="657" width="60" height="30" as="geometry" />
        </mxCell>
        <mxCell id="eC04_2ZupNT1sOcSuhNw-59" value="&lt;b&gt;&lt;font face=&quot;Comic Sans MS&quot;&gt;Lx&lt;/font&gt;&lt;/b&gt;" style="text;html=1;align=center;verticalAlign=middle;whiteSpace=wrap;rounded=0;rotation=-30;" parent="1" vertex="1">
          <mxGeometry x="396" y="650" width="60" height="30" as="geometry" />
        </mxCell>
        <mxCell id="eC04_2ZupNT1sOcSuhNw-60" value="" style="endArrow=baseDash;html=1;rounded=0;startArrow=baseDash;startFill=0;endFill=0;" parent="1" edge="1">
          <mxGeometry width="50" height="50" relative="1" as="geometry">
            <mxPoint x="110" y="610" as="sourcePoint" />
            <mxPoint x="110" y="440" as="targetPoint" />
          </mxGeometry>
        </mxCell>
        <mxCell id="eC04_2ZupNT1sOcSuhNw-61" value="&lt;b&gt;&lt;font face=&quot;Comic Sans MS&quot;&gt;Lz&lt;/font&gt;&lt;/b&gt;" style="text;html=1;align=center;verticalAlign=middle;whiteSpace=wrap;rounded=0;rotation=0;" parent="1" vertex="1">
          <mxGeometry x="65" y="514" width="60" height="30" as="geometry" />
        </mxCell>
        <mxCell id="eC04_2ZupNT1sOcSuhNw-63" value="" style="endArrow=baseDash;html=1;rounded=0;endFill=0;startArrow=baseDash;startFill=0;entryX=0.494;entryY=0.476;entryDx=0;entryDy=0;entryPerimeter=0;exitX=0;exitY=0;exitDx=90;exitDy=21.60708831721044;exitPerimeter=0;" parent="1" edge="1">
          <mxGeometry width="50" height="50" relative="1" as="geometry">
            <mxPoint x="514" y="425.60708831721035" as="sourcePoint" />
            <mxPoint x="468.46000000000004" y="446.8399999999999" as="targetPoint" />
          </mxGeometry>
        </mxCell>
        <mxCell id="eC04_2ZupNT1sOcSuhNw-65" value="" style="endArrow=baseDash;html=1;rounded=0;startArrow=baseDash;startFill=0;endFill=0;" parent="1" edge="1">
          <mxGeometry width="50" height="50" relative="1" as="geometry">
            <mxPoint x="520" y="470" as="sourcePoint" />
            <mxPoint x="520" y="420" as="targetPoint" />
          </mxGeometry>
        </mxCell>
        <mxCell id="eC04_2ZupNT1sOcSuhNw-67" value="" style="endArrow=baseDash;html=1;rounded=0;startArrow=baseDash;startFill=0;endFill=0;" parent="1" edge="1">
          <mxGeometry width="50" height="50" relative="1" as="geometry">
            <mxPoint x="470" y="390" as="sourcePoint" />
            <mxPoint x="520" y="413" as="targetPoint" />
          </mxGeometry>
        </mxCell>
        <mxCell id="eC04_2ZupNT1sOcSuhNw-68" value="&lt;b&gt;&lt;font face=&quot;Comic Sans MS&quot;&gt;ny&lt;/font&gt;&lt;/b&gt;" style="text;html=1;align=center;verticalAlign=middle;whiteSpace=wrap;rounded=0;rotation=0;" parent="1" vertex="1">
          <mxGeometry x="468" y="373" width="60" height="30" as="geometry" />
        </mxCell>
        <mxCell id="eC04_2ZupNT1sOcSuhNw-70" value="&lt;b&gt;&lt;font face=&quot;Comic Sans MS&quot;&gt;nx&lt;/font&gt;&lt;/b&gt;" style="text;html=1;align=center;verticalAlign=middle;whiteSpace=wrap;rounded=0;rotation=0;" parent="1" vertex="1">
          <mxGeometry x="468" y="430" width="60" height="30" as="geometry" />
        </mxCell>
        <mxCell id="eC04_2ZupNT1sOcSuhNw-71" value="&lt;font face=&quot;Comic Sans MS&quot;&gt;&lt;b&gt;nz&lt;/b&gt;&lt;/font&gt;" style="text;html=1;align=center;verticalAlign=middle;whiteSpace=wrap;rounded=0;rotation=0;" parent="1" vertex="1">
          <mxGeometry x="510" y="430" width="60" height="30" as="geometry" />
        </mxCell>
        <mxCell id="Yb1WT7qQ8Ji8rUQ7JZyw-7" value="MPI Rank" style="rounded=0;whiteSpace=wrap;html=1;fillColor=#d0cee2;strokeColor=#56517e;" parent="1" vertex="1">
          <mxGeometry x="707" y="330" width="120" height="30" as="geometry" />
        </mxCell>
        <mxCell id="Yb1WT7qQ8Ji8rUQ7JZyw-8" value="MPI Rank" style="rounded=0;whiteSpace=wrap;html=1;fillColor=#d0cee2;strokeColor=#56517e;" parent="1" vertex="1">
          <mxGeometry x="707" y="451.75" width="120" height="30" as="geometry" />
        </mxCell>
        <mxCell id="Yb1WT7qQ8Ji8rUQ7JZyw-9" value="MPI Rank" style="rounded=0;whiteSpace=wrap;html=1;fillColor=#d0cee2;strokeColor=#56517e;" parent="1" vertex="1">
          <mxGeometry x="707" y="657" width="120" height="30" as="geometry" />
        </mxCell>
        <mxCell id="Yb1WT7qQ8Ji8rUQ7JZyw-10" value="MPI Rank" style="rounded=0;whiteSpace=wrap;html=1;fillColor=#d0cee2;strokeColor=#56517e;" parent="1" vertex="1">
          <mxGeometry x="707" y="780" width="120" height="30" as="geometry" />
        </mxCell>
        <mxCell id="Yb1WT7qQ8Ji8rUQ7JZyw-12" value="" style="shape=flexArrow;endArrow=classic;html=1;rounded=0;fillColor=#b1ddf0;strokeColor=#10739e;" parent="1" edge="1">
          <mxGeometry width="50" height="50" relative="1" as="geometry">
            <mxPoint x="-30" y="540" as="sourcePoint" />
            <mxPoint x="40" y="540" as="targetPoint" />
          </mxGeometry>
        </mxCell>
        <mxCell id="Yb1WT7qQ8Ji8rUQ7JZyw-13" value="&lt;font style=&quot;font-size: 19px;&quot;&gt;Domain Decomposition&lt;/font&gt;" style="text;html=1;align=center;verticalAlign=middle;whiteSpace=wrap;rounded=0;" parent="1" vertex="1">
          <mxGeometry x="-80" y="572.25" width="180" height="30" as="geometry" />
        </mxCell>
        <mxCell id="Yb1WT7qQ8Ji8rUQ7JZyw-14" value="" style="endArrow=baseDash;html=1;rounded=0;startArrow=baseDash;startFill=0;endFill=0;" parent="1" edge="1">
          <mxGeometry width="50" height="50" relative="1" as="geometry">
            <mxPoint x="-525" y="618.5" as="sourcePoint" />
            <mxPoint x="-525" y="448.5" as="targetPoint" />
          </mxGeometry>
        </mxCell>
        <mxCell id="Yb1WT7qQ8Ji8rUQ7JZyw-15" value="&lt;b&gt;&lt;font style=&quot;font-size: 15px;&quot; face=&quot;Comic Sans MS&quot;&gt;Lz&lt;/font&gt;&lt;/b&gt;" style="text;html=1;align=center;verticalAlign=middle;whiteSpace=wrap;rounded=0;rotation=0;" parent="1" vertex="1">
          <mxGeometry x="-570" y="522.5" width="60" height="30" as="geometry" />
        </mxCell>
        <mxCell id="Yb1WT7qQ8Ji8rUQ7JZyw-16" value="" style="endArrow=baseDash;html=1;rounded=0;startArrow=baseDash;startFill=0;endFill=0;" parent="1" edge="1">
          <mxGeometry width="50" height="50" relative="1" as="geometry">
            <mxPoint x="-510" y="640" as="sourcePoint" />
            <mxPoint x="-310" y="720" as="targetPoint" />
          </mxGeometry>
        </mxCell>
        <mxCell id="Yb1WT7qQ8Ji8rUQ7JZyw-17" value="&lt;b&gt;&lt;font style=&quot;font-size: 15px;&quot; face=&quot;Comic Sans MS&quot;&gt;Ly&lt;/font&gt;&lt;/b&gt;" style="text;html=1;align=center;verticalAlign=middle;whiteSpace=wrap;rounded=0;rotation=23;" parent="1" vertex="1">
          <mxGeometry x="-460" y="672" width="60" height="30" as="geometry" />
        </mxCell>
        <mxCell id="Yb1WT7qQ8Ji8rUQ7JZyw-18" value="" style="endArrow=baseDash;html=1;rounded=0;endFill=0;startArrow=baseDash;startFill=0;" parent="1" edge="1">
          <mxGeometry width="50" height="50" relative="1" as="geometry">
            <mxPoint x="-293" y="713" as="sourcePoint" />
            <mxPoint x="-73" y="635" as="targetPoint" />
          </mxGeometry>
        </mxCell>
        <mxCell id="Yb1WT7qQ8Ji8rUQ7JZyw-19" value="&lt;b&gt;&lt;font style=&quot;font-size: 15px;&quot; face=&quot;Comic Sans MS&quot;&gt;Lx&lt;/font&gt;&lt;/b&gt;" style="text;html=1;align=center;verticalAlign=middle;whiteSpace=wrap;rounded=0;rotation=-20;" parent="1" vertex="1">
          <mxGeometry x="-194" y="676" width="60" height="30" as="geometry" />
        </mxCell>
        <mxCell id="Yb1WT7qQ8Ji8rUQ7JZyw-21" value="" style="endArrow=none;dashed=1;html=1;rounded=0;" parent="1" target="Yb1WT7qQ8Ji8rUQ7JZyw-11" edge="1">
          <mxGeometry width="50" height="50" relative="1" as="geometry">
            <mxPoint x="-500" y="630" as="sourcePoint" />
            <mxPoint x="-450" y="580" as="targetPoint" />
          </mxGeometry>
        </mxCell>
        <mxCell id="Yb1WT7qQ8Ji8rUQ7JZyw-22" value="" style="endArrow=none;dashed=1;html=1;dashPattern=1 3;strokeWidth=2;rounded=0;" parent="1" edge="1">
          <mxGeometry width="50" height="50" relative="1" as="geometry">
            <mxPoint x="-480" y="620" as="sourcePoint" />
            <mxPoint x="-310" y="560" as="targetPoint" />
          </mxGeometry>
        </mxCell>
        <mxCell id="Yb1WT7qQ8Ji8rUQ7JZyw-23" value="" style="endArrow=none;dashed=1;html=1;dashPattern=1 3;strokeWidth=2;rounded=0;exitX=0.498;exitY=0.562;exitDx=0;exitDy=0;exitPerimeter=0;entryX=0.5;entryY=0;entryDx=0;entryDy=0;entryPerimeter=0;" parent="1" edge="1">
          <mxGeometry width="50" height="50" relative="1" as="geometry">
            <mxPoint x="-299.8199999999997" y="558.7739999999999" as="sourcePoint" />
            <mxPoint x="-299" y="375" as="targetPoint" />
          </mxGeometry>
        </mxCell>
        <mxCell id="Yb1WT7qQ8Ji8rUQ7JZyw-24" value="" style="endArrow=none;dashed=1;html=1;dashPattern=1 3;strokeWidth=2;rounded=0;" parent="1" edge="1">
          <mxGeometry width="50" height="50" relative="1" as="geometry">
            <mxPoint x="-290" y="565.5" as="sourcePoint" />
            <mxPoint x="-110" y="618.5" as="targetPoint" />
          </mxGeometry>
        </mxCell>
        <mxCell id="Yb1WT7qQ8Ji8rUQ7JZyw-30" value="" style="ellipse;whiteSpace=wrap;html=1;aspect=fixed;fillColor=#d0cee2;strokeColor=#56517e;shadow=1;" parent="1" vertex="1">
          <mxGeometry x="-240" y="627" width="10" height="10" as="geometry" />
        </mxCell>
        <mxCell id="Yb1WT7qQ8Ji8rUQ7JZyw-39" value="" style="endArrow=none;dashed=1;html=1;dashPattern=1 3;strokeWidth=2;rounded=0;" parent="1" edge="1">
          <mxGeometry width="50" height="50" relative="1" as="geometry">
            <mxPoint x="766.57" y="564" as="sourcePoint" />
            <mxPoint x="766.57" y="514" as="targetPoint" />
          </mxGeometry>
        </mxCell>
        <mxCell id="Yb1WT7qQ8Ji8rUQ7JZyw-40" value="" style="shape=flexArrow;endArrow=classic;html=1;rounded=0;fillColor=#b1ddf0;strokeColor=#10739e;" parent="1" edge="1">
          <mxGeometry width="50" height="50" relative="1" as="geometry">
            <mxPoint x="580" y="540" as="sourcePoint" />
            <mxPoint x="650" y="540" as="targetPoint" />
          </mxGeometry>
        </mxCell>
        <mxCell id="Yb1WT7qQ8Ji8rUQ7JZyw-41" value="&lt;b&gt;&lt;font style=&quot;font-size: 18px;&quot;&gt;Particle&lt;/font&gt;&lt;/b&gt;" style="text;html=1;align=center;verticalAlign=middle;whiteSpace=wrap;rounded=0;" parent="1" vertex="1">
          <mxGeometry x="-150" y="330" width="60" height="30" as="geometry" />
        </mxCell>
        <mxCell id="Yb1WT7qQ8Ji8rUQ7JZyw-42" value="&lt;b&gt;&lt;font style=&quot;font-size: 32px;&quot;&gt;Container&lt;/font&gt;&lt;/b&gt;" style="text;html=1;align=center;verticalAlign=middle;whiteSpace=wrap;rounded=0;" parent="1" vertex="1">
          <mxGeometry x="-338" y="750" width="60" height="30" as="geometry" />
        </mxCell>
        <mxCell id="Yb1WT7qQ8Ji8rUQ7JZyw-44" value="&lt;b&gt;&lt;font style=&quot;font-size: 16px;&quot;&gt;Subdomain&lt;/font&gt;&lt;/b&gt;" style="html=1;whiteSpace=wrap;shape=isoCube2;backgroundOutline=1;isoAngle=15;fillColor=#fad7ac;strokeColor=#b46504;" parent="1" vertex="1">
          <mxGeometry x="732" y="587.75" width="70" height="65.5" as="geometry" />
        </mxCell>
        <mxCell id="Yb1WT7qQ8Ji8rUQ7JZyw-46" value="&lt;b&gt;&lt;font style=&quot;font-size: 16px;&quot;&gt;Subdomain&lt;/font&gt;&lt;/b&gt;" style="html=1;whiteSpace=wrap;shape=isoCube2;backgroundOutline=1;isoAngle=15;fillColor=#dae8fc;strokeColor=#6c8ebf;" parent="1" vertex="1">
          <mxGeometry x="732" y="706" width="70" height="65.5" as="geometry" />
        </mxCell>
        <mxCell id="Yb1WT7qQ8Ji8rUQ7JZyw-47" value="&lt;b&gt;&lt;font style=&quot;font-size: 16px;&quot;&gt;Subdomain&lt;/font&gt;&lt;/b&gt;" style="html=1;whiteSpace=wrap;shape=isoCube2;backgroundOutline=1;isoAngle=15;fillColor=#dae8fc;strokeColor=#6c8ebf;" parent="1" vertex="1">
          <mxGeometry x="732" y="384.25" width="70" height="65.5" as="geometry" />
        </mxCell>
        <mxCell id="Yb1WT7qQ8Ji8rUQ7JZyw-48" value="&lt;b&gt;&lt;font style=&quot;font-size: 16px;&quot;&gt;Subdomain&lt;/font&gt;&lt;/b&gt;" style="html=1;whiteSpace=wrap;shape=isoCube2;backgroundOutline=1;isoAngle=15;fillColor=#fad7ac;strokeColor=#b46504;" parent="1" vertex="1">
          <mxGeometry x="732" y="260" width="70" height="65.5" as="geometry" />
        </mxCell>
        <mxCell id="Yb1WT7qQ8Ji8rUQ7JZyw-49" value="&lt;font style=&quot;font-size: 19px;&quot;&gt;MPI Scheduling&lt;/font&gt;" style="text;html=1;align=center;verticalAlign=middle;whiteSpace=wrap;rounded=0;" parent="1" vertex="1">
          <mxGeometry x="520" y="572.25" width="180" height="30" as="geometry" />
        </mxCell>
        <mxCell id="Yb1WT7qQ8Ji8rUQ7JZyw-51" value="" style="shape=flexArrow;endArrow=classic;html=1;rounded=0;fillColor=#b1ddf0;strokeColor=#10739e;" parent="1" edge="1">
          <mxGeometry width="50" height="50" relative="1" as="geometry">
            <mxPoint x="873" y="540" as="sourcePoint" />
            <mxPoint x="943" y="540" as="targetPoint" />
          </mxGeometry>
        </mxCell>
        <mxCell id="Yb1WT7qQ8Ji8rUQ7JZyw-52" value="&lt;font face=&quot;Comic Sans MS&quot; style=&quot;font-size: 25px;&quot;&gt;Result&lt;/font&gt;" style="text;html=1;align=center;verticalAlign=middle;whiteSpace=wrap;rounded=0;" parent="1" vertex="1">
          <mxGeometry x="1000" y="525.5" width="60" height="30" as="geometry" />
        </mxCell>
        <mxCell id="Yb1WT7qQ8Ji8rUQ7JZyw-53" value="&lt;font style=&quot;font-size: 20px;&quot;&gt;Compute Particle Force and Movement&lt;/font&gt;" style="text;html=1;align=center;verticalAlign=middle;whiteSpace=wrap;rounded=0;" parent="1" vertex="1">
          <mxGeometry x="840" y="573.25" width="177" height="80" as="geometry" />
        </mxCell>
        <mxCell id="UjRzk4K31tHqeOQSgvd3-1" value="" style="ellipse;whiteSpace=wrap;html=1;aspect=fixed;strokeWidth=1;fillColor=#f8cecc;strokeColor=#b85450;" parent="1" vertex="1">
          <mxGeometry x="-215" y="615" width="11" height="11" as="geometry" />
        </mxCell>
        <mxCell id="UjRzk4K31tHqeOQSgvd3-2" value="" style="ellipse;whiteSpace=wrap;html=1;align=center;fontStyle=4;dashed=1;dashPattern=12 12;strokeWidth=1;fillColor=#f8cecc;strokeColor=#b85450;" parent="1" vertex="1">
          <mxGeometry x="-215" y="619.13" width="11" height="2.75" as="geometry" />
        </mxCell>
        <mxCell id="UjRzk4K31tHqeOQSgvd3-3" value="" style="ellipse;whiteSpace=wrap;html=1;aspect=fixed;strokeWidth=1;fillColor=#FFFF99;strokeColor=#d6b656;" parent="1" vertex="1">
          <mxGeometry x="-241" y="539" width="11" height="11" as="geometry" />
        </mxCell>
        <mxCell id="UjRzk4K31tHqeOQSgvd3-4" value="" style="ellipse;whiteSpace=wrap;html=1;align=center;fontStyle=4;dashed=1;dashPattern=12 12;strokeWidth=1;fillColor=#FFFF99;strokeColor=#d6b656;" parent="1" vertex="1">
          <mxGeometry x="-241" y="543.13" width="11" height="2.75" as="geometry" />
        </mxCell>
        <mxCell id="UjRzk4K31tHqeOQSgvd3-7" value="" style="ellipse;whiteSpace=wrap;html=1;aspect=fixed;strokeWidth=1;fillColor=#fff2cc;strokeColor=#d6b656;" parent="1" vertex="1">
          <mxGeometry x="-371" y="582.25" width="11" height="11" as="geometry" />
        </mxCell>
        <mxCell id="UjRzk4K31tHqeOQSgvd3-8" value="" style="ellipse;whiteSpace=wrap;html=1;align=center;fontStyle=4;dashed=1;dashPattern=12 12;strokeWidth=1;fillColor=#fff2cc;strokeColor=#d6b656;" parent="1" vertex="1">
          <mxGeometry x="-371" y="586.38" width="11" height="2.75" as="geometry" />
        </mxCell>
        <mxCell id="UjRzk4K31tHqeOQSgvd3-9" value="" style="ellipse;whiteSpace=wrap;html=1;aspect=fixed;strokeWidth=1;fillColor=#dae8fc;strokeColor=#6c8ebf;shadow=1;" parent="1" vertex="1">
          <mxGeometry x="-349" y="525.5" width="11" height="11" as="geometry" />
        </mxCell>
        <mxCell id="UjRzk4K31tHqeOQSgvd3-10" value="" style="ellipse;whiteSpace=wrap;html=1;align=center;fontStyle=4;dashed=1;dashPattern=12 12;strokeWidth=1;fillColor=#dae8fc;strokeColor=#6c8ebf;shadow=1;" parent="1" vertex="1">
          <mxGeometry x="-349" y="529.63" width="11" height="2.75" as="geometry" />
        </mxCell>
        <mxCell id="UjRzk4K31tHqeOQSgvd3-11" value="" style="ellipse;whiteSpace=wrap;html=1;aspect=fixed;strokeWidth=1;fillColor=#dae8fc;strokeColor=#6c8ebf;gradientColor=none;" parent="1" vertex="1">
          <mxGeometry x="-460" y="496" width="11" height="11" as="geometry" />
        </mxCell>
        <mxCell id="UjRzk4K31tHqeOQSgvd3-12" value="" style="ellipse;whiteSpace=wrap;html=1;align=center;fontStyle=4;dashed=1;dashPattern=12 12;strokeWidth=1;fillColor=#dae8fc;strokeColor=#6c8ebf;gradientColor=none;" parent="1" vertex="1">
          <mxGeometry x="-460" y="500.13" width="11" height="2.75" as="geometry" />
        </mxCell>
        <mxCell id="UjRzk4K31tHqeOQSgvd3-13" value="" style="ellipse;whiteSpace=wrap;html=1;aspect=fixed;strokeWidth=1;fillColor=#f8cecc;strokeColor=#b85450;" parent="1" vertex="1">
          <mxGeometry x="-390" y="610.88" width="11" height="11" as="geometry" />
        </mxCell>
        <mxCell id="UjRzk4K31tHqeOQSgvd3-14" value="" style="ellipse;whiteSpace=wrap;html=1;align=center;fontStyle=4;dashed=1;dashPattern=12 12;strokeWidth=1;fillColor=#f8cecc;strokeColor=#b85450;" parent="1" vertex="1">
          <mxGeometry x="-390" y="615.01" width="11" height="2.75" as="geometry" />
        </mxCell>
        <mxCell id="UjRzk4K31tHqeOQSgvd3-17" value="" style="ellipse;whiteSpace=wrap;html=1;aspect=fixed;strokeWidth=1;fillColor=#f8cecc;strokeColor=#b85450;" parent="1" vertex="1">
          <mxGeometry x="-194" y="503" width="11" height="11" as="geometry" />
        </mxCell>
        <mxCell id="UjRzk4K31tHqeOQSgvd3-18" value="" style="ellipse;whiteSpace=wrap;html=1;align=center;fontStyle=4;dashed=1;dashPattern=12 12;strokeWidth=1;fillColor=#f8cecc;strokeColor=#b85450;" parent="1" vertex="1">
          <mxGeometry x="-194" y="507.13" width="11" height="2.75" as="geometry" />
        </mxCell>
        <mxCell id="UjRzk4K31tHqeOQSgvd3-19" value="" style="ellipse;whiteSpace=wrap;html=1;aspect=fixed;strokeWidth=1;fillColor=#f8cecc;strokeColor=#b85450;" parent="1" vertex="1">
          <mxGeometry x="-338" y="589.13" width="11" height="11" as="geometry" />
        </mxCell>
        <mxCell id="UjRzk4K31tHqeOQSgvd3-20" value="" style="ellipse;whiteSpace=wrap;html=1;align=center;fontStyle=4;dashed=1;dashPattern=12 12;strokeWidth=1;fillColor=#f8cecc;strokeColor=#b85450;" parent="1" vertex="1">
          <mxGeometry x="-338" y="593.26" width="11" height="2.75" as="geometry" />
        </mxCell>
        <mxCell id="UjRzk4K31tHqeOQSgvd3-21" value="" style="ellipse;whiteSpace=wrap;html=1;aspect=fixed;strokeWidth=1;fillColor=#f8cecc;strokeColor=#b85450;" parent="1" vertex="1">
          <mxGeometry x="-278" y="596.01" width="11" height="11" as="geometry" />
        </mxCell>
        <mxCell id="UjRzk4K31tHqeOQSgvd3-22" value="" style="ellipse;whiteSpace=wrap;html=1;align=center;fontStyle=4;dashed=1;dashPattern=12 12;strokeWidth=1;fillColor=#f8cecc;strokeColor=#b85450;" parent="1" vertex="1">
          <mxGeometry x="-278" y="600.14" width="11" height="2.75" as="geometry" />
        </mxCell>
        <mxCell id="UjRzk4K31tHqeOQSgvd3-23" value="" style="ellipse;whiteSpace=wrap;html=1;aspect=fixed;fillColor=#d0cee2;strokeColor=#56517e;shadow=1;" parent="1" vertex="1">
          <mxGeometry x="-440" y="550" width="10" height="10" as="geometry" />
        </mxCell>
        <mxCell id="UjRzk4K31tHqeOQSgvd3-24" value="" style="ellipse;whiteSpace=wrap;html=1;aspect=fixed;fillColor=#d0cee2;strokeColor=#56517e;shadow=1;" parent="1" vertex="1">
          <mxGeometry x="-160" y="518" width="10" height="10" as="geometry" />
        </mxCell>
        <mxCell id="UjRzk4K31tHqeOQSgvd3-25" value="" style="ellipse;whiteSpace=wrap;html=1;aspect=fixed;fillColor=#d0cee2;strokeColor=#56517e;shadow=1;" parent="1" vertex="1">
          <mxGeometry x="-337.5" y="624" width="10" height="10" as="geometry" />
        </mxCell>
        <mxCell id="UjRzk4K31tHqeOQSgvd3-26" value="" style="endArrow=classic;html=1;rounded=0;" parent="1" edge="1">
          <mxGeometry width="50" height="50" relative="1" as="geometry">
            <mxPoint x="-130" y="370" as="sourcePoint" />
            <mxPoint x="-234" y="534.5" as="targetPoint" />
          </mxGeometry>
        </mxCell>
        <mxCell id="UjRzk4K31tHqeOQSgvd3-27" value="" style="endArrow=classic;html=1;rounded=0;" parent="1" edge="1">
          <mxGeometry width="50" height="50" relative="1" as="geometry">
            <mxPoint x="-116" y="361" as="sourcePoint" />
            <mxPoint x="-146" y="500" as="targetPoint" />
          </mxGeometry>
        </mxCell>
        <mxCell id="UjRzk4K31tHqeOQSgvd3-28" value="" style="endArrow=classic;html=1;rounded=0;" parent="1" edge="1">
          <mxGeometry width="50" height="50" relative="1" as="geometry">
            <mxPoint x="-140" y="359" as="sourcePoint" />
            <mxPoint x="-439" y="500.75" as="targetPoint" />
          </mxGeometry>
        </mxCell>
      </root>
    </mxGraphModel>
  </diagram>
</mxfile>
